<svg xmlns="http://www.w3.org/2000/svg" width="84.435" height="48.539" viewBox="0 0 84.435 48.539">
  <g id="Bills-01" transform="translate(0.009 -0.014)">
    <path id="Path_1" data-name="Path 1" d="M198.808,36.308H176.023a1.48,1.48,0,0,1,.156-.155,3.289,3.289,0,0,0,.764-.758,2.269,2.269,0,0,0,.4-1.056c.12,0,.24-.006.36-.006q5.7,0,11.4,0a7.385,7.385,0,0,0,4.555-1.481,7.3,7.3,0,0,0,2.994-5.27,7.491,7.491,0,0,0,.042-.821q0-8.618,0-17.234a7.485,7.485,0,0,0-5.979-7.381,8.4,8.4,0,0,0-1.789-.158H164.633A3.437,3.437,0,0,0,163.32.035c.162-.009.243-.015.327-.015h35.162Z" transform="translate(-114.382 -0.004)" fill="#e69e3d"/>
    <path id="Path_2" data-name="Path 2" d="M155.29,150.289q-1.528-1.668-3.054-3.337a1.353,1.353,0,0,0-.132-.11c-.006.128-.012.22-.012.309v2.721c0,.321-.018.336-.336.339-.153,0-.306,0-.456,0a.171.171,0,0,1-.192-.193v-4.847a.434.434,0,0,1,0-.14c.024-.074.051-.193.1-.205a.511.511,0,0,1,.288.042c.063.027.108.1.159.158l2.721,2.87c.063.065.132.128.231.226.006-.14.015-.229.015-.318v-2.5c0-.074,0-.152,0-.226.006-.119.06-.2.192-.193h.629c.132,0,.189.071.186.2v.17q0,2.338,0,4.678a2.445,2.445,0,0,1-.054.357C155.482,150.289,155.386,150.289,155.29,150.289Z" transform="translate(-105.828 -101.738)" fill="#e69e3d"/>
    <path id="Path_3" data-name="Path 3" d="M199.66,150.716l-.267-.089a1.36,1.36,0,0,1-.7-2.171,5.5,5.5,0,0,1,.674-.633c-.024-.033-.069-.089-.114-.146a5.02,5.02,0,0,1-.315-.4,1.158,1.158,0,0,1,.539-1.707,1.634,1.634,0,0,1,1.435.045,1.113,1.113,0,0,1,.473,1.594,3.367,3.367,0,0,1-.458.535,2.941,2.941,0,0,1-.267.223c.273.274.533.538.812.818a1.646,1.646,0,0,0,.231-.565c.027-.089.042-.184.066-.277a.164.164,0,0,1,.213-.134.388.388,0,0,1,.057.012c.575.161.6.122.414.69-.1.294-.225.577-.348.883.189.178.381.357.572.541s.195.244.009.44c-.111.116-.228.226-.345.339h-.171c-.2-.19-.408-.384-.626-.586a2.2,2.2,0,0,1-1.106.538.414.414,0,0,0-.1.048C200.116,150.716,199.888,150.716,199.66,150.716Zm.252-2.367a1.039,1.039,0,0,0-.563.55.7.7,0,0,0,.542,1,1.2,1.2,0,0,0,1.109-.41C200.628,149.1,200.272,148.73,199.912,148.349Zm.2-.916a1.162,1.162,0,0,0,.569-.5.523.523,0,0,0-.162-.681.629.629,0,0,0-.788.024.514.514,0,0,0-.024.7C199.825,147.13,199.969,147.27,200.113,147.433Z" transform="translate(-138.942 -102.166)" fill="#e69e3d"/>
    <path id="Path_4" data-name="Path 4" d="M92.5,150.447c-.087-.033-.171-.068-.261-.1a2.068,2.068,0,0,1-1.5-1.96c-.012-1.02,0-2.04,0-3.06,0-.265.024-.285.3-.288.144,0,.285,0,.429,0,.282,0,.294.015.3.283,0,.291,0,.586,0,.877v1.927a2.124,2.124,0,0,0,.024.366,1.106,1.106,0,0,0,2.2-.155c.012-.964,0-1.927,0-2.891,0-.41,0-.41.4-.41.144,0,.285,0,.429,0a.172.172,0,0,1,.2.187V148.2a2.073,2.073,0,0,1-1.705,2.195.3.3,0,0,0-.069.045C93,150.447,92.753,150.447,92.5,150.447Z" transform="translate(-63.553 -101.896)" fill="#e69e3d"/>
    <path id="Path_5" data-name="Path 5" d="M41.19,150.266c-.138-.036-.273-.071-.411-.11a2.336,2.336,0,0,1-.854-.44.214.214,0,0,1-.063-.318c.078-.119.141-.247.216-.366.108-.167.177-.181.354-.086a4.851,4.851,0,0,0,.629.327,1.7,1.7,0,0,0,.611.089.555.555,0,0,0,.521-.378.572.572,0,0,0-.153-.625,2.167,2.167,0,0,0-.776-.461,3.188,3.188,0,0,1-.953-.556,1.384,1.384,0,0,1-.488-.99,1.44,1.44,0,0,1,1.214-1.517,2.564,2.564,0,0,1,1.933.384c.21.131.225.214.1.416-.066.1-.135.208-.207.306-.129.173-.189.181-.381.086-.222-.11-.441-.22-.671-.309a.82.82,0,0,0-.638.009.51.51,0,0,0-.2.839,1.411,1.411,0,0,0,.357.277,5.235,5.235,0,0,0,.542.25,3.434,3.434,0,0,1,.932.541,1.435,1.435,0,0,1-.3,2.412,4.842,4.842,0,0,1-.578.223C41.684,150.266,41.435,150.266,41.19,150.266Z" transform="translate(-27.89 -101.716)" fill="#e69e3d"/>
    <path id="Path_6" data-name="Path 6" d="M51.833,34.368a3.554,3.554,0,0,0,1.28,1.909.24.24,0,0,1-.015.045.028.028,0,0,1-.021.015q-26.45,0-52.9.006a.984.984,0,0,1-.135-.015c-.066-.241-.069-36,0-36.258H40.328c-.3.28-.611.538-.884.83a2.138,2.138,0,0,0-.515,1.124h-15.3q-6.882,0-13.767,0a7.449,7.449,0,0,0-3.195.627A7.355,7.355,0,0,0,2.205,8.593a6.09,6.09,0,0,0-.054.874q0,8.73,0,17.463a7.478,7.478,0,0,0,6.212,7.325,8.826,8.826,0,0,0,1.507.113H51.833Z" transform="translate(0 -0.039)" fill="#e69e3d"/>
    <path id="Path_7" data-name="Path 7" d="M28.052,44.368c0-.089-.009-.152-.012-.244.114-.009.213-.018.315-.024A1.822,1.822,0,0,0,30.2,42.494a7.757,7.757,0,0,0,.117-1.579V23.03a6.479,6.479,0,0,0-.12-1.523,3.025,3.025,0,0,0-.231-.666,1.693,1.693,0,0,0-1.4-.9c-.159-.021-.321-.033-.494-.051-.009-.068-.018-.131-.027-.193a.359.359,0,0,1,.087-.033,1.164,1.164,0,0,1,.144-.006c3.3,0,6.608-.012,9.91.018a32.022,32.022,0,0,1,5.565.494,12.586,12.586,0,0,1,3.572,1.142,5.447,5.447,0,0,1,1.639,1.258,4.253,4.253,0,0,1,.977,3.274A4.391,4.391,0,0,1,48.1,29.064a9.152,9.152,0,0,1-2.94,1.41,19.477,19.477,0,0,1-3.551.7c-.435.048-.872.08-1.307.122a.318.318,0,0,0-.21.107.887.887,0,0,0,.165.054c.824.077,1.651.131,2.472.229a16.17,16.17,0,0,1,4.738,1.2,9.13,9.13,0,0,1,1.414.791,4.546,4.546,0,0,1,2.092,3.479,5.467,5.467,0,0,1-2.862,5.531,10.949,10.949,0,0,1-3.036,1.13,21.544,21.544,0,0,1-4.043.512c-.914.036-1.828.048-2.739.048q-4.94.009-9.88,0C28.289,44.368,28.178,44.368,28.052,44.368Zm7.123-.256h.33c.752,0,1.5,0,2.257,0a13.48,13.48,0,0,0,2.077-.131,8.6,8.6,0,0,0,2.868-.9,5.481,5.481,0,0,0,2.82-3.569,7.629,7.629,0,0,0,.159-2.923,5.013,5.013,0,0,0-3.024-4.163,9.073,9.073,0,0,0-3.455-.794c-1.283-.054-2.568-.039-3.854-.054-.054,0-.111.012-.177.018C35.175,35.758,35.175,39.913,35.175,44.112Zm0-24.2V31.3h.3c.647,0,1.295,0,1.942,0a15.122,15.122,0,0,0,2.107-.128,8.444,8.444,0,0,0,2.667-.794A4.942,4.942,0,0,0,44.8,27.3a6.948,6.948,0,0,0,.174-3.28,4.191,4.191,0,0,0-2.3-3.1c-.177-.092-.36-.175-.542-.253A10.461,10.461,0,0,0,39.164,20a38.131,38.131,0,0,0-3.824-.1C35.3,19.9,35.247,19.907,35.178,19.913Z" transform="translate(-19.643 -13.8)" fill="#e69e3d"/>
    <path id="Path_8" data-name="Path 8" d="M139.625,14.788q0-6.165,0-12.327a2.8,2.8,0,0,0-.069-.672,1.122,1.122,0,0,0-1.322-.851.823.823,0,0,0-.647.5,7.887,7.887,0,0,0-.246.752c-.045.143-.072.294-.126.434-.078.193-.207.238-.417.172a.285.285,0,0,1-.225-.366A3.139,3.139,0,0,1,136.8,1.8a2.661,2.661,0,0,1,.8-.907,4.429,4.429,0,0,1,2.436-.862,5.019,5.019,0,0,1,1.7.158,2.988,2.988,0,0,1,2,1.683,5.162,5.162,0,0,1,.443,1.778c.033.4.045.791.045,1.19q0,11.8,0,23.607a2.051,2.051,0,0,0,.138.859,1.08,1.08,0,0,0,1.139.675.836.836,0,0,0,.746-.532,6.377,6.377,0,0,0,.216-.788c.033-.128.039-.262.072-.39a1.058,1.058,0,0,1,.129-.312.258.258,0,0,1,.473.042.794.794,0,0,1,.045.384,2.157,2.157,0,0,1-.644,1.267,4.044,4.044,0,0,1-2.074,1.127,4.243,4.243,0,0,1-2.712-.2,3.444,3.444,0,0,1-2.08-2.721,6.036,6.036,0,0,1-.078-1.014q-.009-6.022,0-12.044A.06.06,0,0,1,139.625,14.788Z" transform="translate(-95.641 0)" fill="#e69e3d"/>
    <path id="Path_9" data-name="Path 9" d="M171.409,32.582q0-6.236-.006-12.47a2.618,2.618,0,0,0-.108-.779,1.125,1.125,0,0,0-1.4-.717.78.78,0,0,0-.518.452,7.323,7.323,0,0,0-.243.723c-.048.152-.072.312-.129.464a.341.341,0,0,1-.65-.2,3.23,3.23,0,0,1,.3-.726,3.123,3.123,0,0,1,1.388-1.187,4.992,4.992,0,0,1,3.617-.262,2.914,2.914,0,0,1,1.93,1.8,5.75,5.75,0,0,1,.39,1.82c.018.283.021.565.021.851V46.211a2.067,2.067,0,0,0,.162.913,1.081,1.081,0,0,0,1.265.627.854.854,0,0,0,.644-.586c.09-.268.135-.55.2-.824a4.762,4.762,0,0,1,.126-.494.3.3,0,0,1,.324-.223.284.284,0,0,1,.246.3,2.675,2.675,0,0,1-.108.69,2.236,2.236,0,0,1-.677.967,4.283,4.283,0,0,1-2.3,1.053,4.147,4.147,0,0,1-1.783-.08,3.451,3.451,0,0,1-2.622-2.84,5.584,5.584,0,0,1-.1-1.071q0-4.108.006-8.22V32.573C171.394,32.582,171.4,32.582,171.409,32.582Z" transform="translate(-117.896 -12.397)" fill="#e69e3d"/>
    <path id="Path_10" data-name="Path 10" d="M222.44,51.4c-.255-.161-.5-.333-.767-.476a6.013,6.013,0,0,0-2.143-.651,6.509,6.509,0,0,0-2.769.205,3.441,3.441,0,0,0-1.361.752,1.9,1.9,0,0,0-.647,1.677,1.769,1.769,0,0,0,.36.851,3.713,3.713,0,0,0,.848.8,10.245,10.245,0,0,0,1.738.972c1.022.461,2.053.9,3.075,1.365a13.71,13.71,0,0,1,2.137,1.136,8.945,8.945,0,0,1,1.136.9,3.222,3.222,0,0,1,.5,4.214,4.768,4.768,0,0,1-1.522,1.508,8.8,8.8,0,0,1-3.036,1.19,14.208,14.208,0,0,1-4.486.217,8.756,8.756,0,0,1-3.362-1.017,5.019,5.019,0,0,1-1.2-.907,2.849,2.849,0,0,1-.854-1.781,2.036,2.036,0,0,1,.968-1.96,2.2,2.2,0,0,1,2.3-.131,2.135,2.135,0,0,1,1.214,2.106,2.287,2.287,0,0,1-1.8,2l-.306.062c-.018.024-.036.045-.054.068a1.386,1.386,0,0,1,.195.113,4.463,4.463,0,0,0,1.522.818,8.679,8.679,0,0,0,4.369.238,3.78,3.78,0,0,0,1.579-.69A2.221,2.221,0,0,0,221,63.35a1.865,1.865,0,0,0-.357-1.282,3.116,3.116,0,0,0-.932-.868c-.569-.342-1.145-.681-1.741-.967-1.079-.514-2.191-.969-3.267-1.487a18.116,18.116,0,0,1-1.855-1.056,5.949,5.949,0,0,1-1-.839,3.312,3.312,0,0,1-.12-4.6,5.266,5.266,0,0,1,1.6-1.213,9.656,9.656,0,0,1,2.931-.9,13.879,13.879,0,0,1,2.673-.17,8.691,8.691,0,0,1,3.713.9,4.446,4.446,0,0,1,1.51,1.19,2.22,2.22,0,0,1,.492,1.7,1.867,1.867,0,0,1-1.705,1.668,2.151,2.151,0,0,1-2.218-1.261,1.945,1.945,0,0,1,1.3-2.6c.126-.033.255-.054.384-.08Q222.426,51.435,222.44,51.4Z" transform="translate(-147.127 -35.093)" fill="#e69e3d"/>
    <path id="Path_11" data-name="Path 11" d="M112.374,59.108v4.648a2.774,2.774,0,0,0,.132,1.005,1.729,1.729,0,0,0,.3.538.836.836,0,0,0,1.346-.092,2.936,2.936,0,0,0,.294-.672c.093-.277.147-.565.234-.848a1.641,1.641,0,0,1,.174-.384.313.313,0,0,1,.369-.146.3.3,0,0,1,.234.288,2.468,2.468,0,0,1-.075.613,2.532,2.532,0,0,1-.764,1.178,4.157,4.157,0,0,1-3.467,1.1,4.5,4.5,0,0,1-.971-.217,3.718,3.718,0,0,1-2.577-3.016,7.585,7.585,0,0,1-.108-1.38c0-2.73.027-5.46.033-8.187a5.912,5.912,0,0,0-.114-1.124,1.917,1.917,0,0,0-.291-.7.747.747,0,0,0-1.325.071,3.937,3.937,0,0,0-.255.687c-.066.2-.108.4-.177.6a1.139,1.139,0,0,1-.159.3.32.32,0,0,1-.36.113.3.3,0,0,1-.228-.291,1.219,1.219,0,0,1,.138-.657,2.867,2.867,0,0,1,.626-.836,4.273,4.273,0,0,1,3.665-1.178,5.716,5.716,0,0,1,.89.19,3.145,3.145,0,0,1,2.107,2,6.094,6.094,0,0,1,.327,2.174C112.377,56.292,112.374,57.7,112.374,59.108Z" transform="translate(-73.269 -35.455)" fill="#e69e3d"/>
    <path id="Path_12" data-name="Path 12" d="M111.5,26.411a2.738,2.738,0,0,1,2.772-2.781A2.776,2.776,0,0,1,117.1,26.4a2.819,2.819,0,0,1-2.832,2.784A2.778,2.778,0,0,1,111.5,26.411Z" transform="translate(-78.092 -16.592)" fill="#e69e3d"/>
    <path id="Path_13" data-name="Path 13" d="M230.57,147.665c.093.051.174.1.255.143a1.3,1.3,0,0,1,.111,2.227,1.842,1.842,0,0,1-1.067.348c-.59.012-1.181.006-1.768,0-.243,0-.276-.039-.276-.286q0-2.378,0-4.758c0-.262.024-.283.3-.286.551,0,1.1,0,1.654,0a1.671,1.671,0,0,1,.989.306,1.268,1.268,0,0,1,.141,2.028C230.81,147.487,230.693,147.567,230.57,147.665Zm-1.729,1.778a.783.783,0,0,0,.1.03c.258,0,.515.009.77,0a.69.69,0,0,0,.719-.627.677.677,0,0,0-.617-.7,8.843,8.843,0,0,0-.974-.006C228.841,148.584,228.841,149,228.841,149.443Zm0-2.165c.315,0,.6.015.881,0a.626.626,0,0,0,.569-.607.593.593,0,0,0-.435-.675,4.455,4.455,0,0,0-1.016-.024Z" transform="translate(-159.555 -101.907)" fill="#e69e3d"/>
    <path id="Path_14" data-name="Path 14" d="M114.878,148.213c.054.1.1.205.153.3.258.473.515.949.773,1.422a1.618,1.618,0,0,1,.09.175c.054.14.009.229-.141.235-.258.012-.515.006-.77,0-.129,0-.165-.113-.21-.205q-.409-.807-.821-1.621c-.042-.083-.087-.167-.129-.244H113c-.006.092-.018.175-.018.259,0,.512,0,1.02,0,1.532,0,.25-.033.277-.279.282-.162,0-.324.006-.485,0-.2-.009-.222-.039-.234-.241,0-.048,0-.1,0-.143V145.4c0-.11.012-.223.018-.36.111-.009.2-.021.294-.021.677,0,1.352-.006,2.029,0a1.621,1.621,0,0,1,1.654,1.424,1.518,1.518,0,0,1-.671,1.5A4.438,4.438,0,0,1,114.878,148.213Zm-1.885-.77c.423,0,.818.006,1.217,0a.752.752,0,0,0,.77-.746.738.738,0,0,0-.761-.749c-.351-.009-.7,0-1.055,0-.054,0-.108.015-.171.021Z" transform="translate(-78.425 -101.881)" fill="#e69e3d"/>
    <path id="Path_15" data-name="Path 15" d="M267.548,148.277h-.7a.715.715,0,0,0-.129.024c-.006.1-.012.187-.012.28v1.475c0,.28-.024.3-.312.306-.153,0-.306.006-.456,0-.183-.009-.213-.042-.225-.22,0-.057,0-.113,0-.17v-4.562c0-.065,0-.131,0-.2a.16.16,0,0,1,.177-.175c.03,0,.057,0,.087,0,.713,0,1.429-.012,2.143,0a1.623,1.623,0,0,1,1.6,1.707,1.586,1.586,0,0,1-.83,1.311c-.087.054-.177.1-.282.164.075.146.144.28.216.41.243.449.488.9.731,1.347.174.324.135.384-.246.387-.153,0-.306-.009-.456,0a.324.324,0,0,1-.354-.214c-.273-.562-.56-1.115-.842-1.671C267.629,148.417,267.6,148.36,267.548,148.277Zm-.818-.862a.562.562,0,0,0,.108.03c.372,0,.74.009,1.112,0a.76.76,0,0,0,.77-.749.743.743,0,0,0-.764-.746c-.342-.009-.683,0-1.025,0a1.259,1.259,0,0,0-.2.027C266.73,146.46,266.73,146.93,266.73,147.414Z" transform="translate(-186.092 -101.886)" fill="#e69e3d"/>
    <path id="Path_16" data-name="Path 16" d="M6.649,148.229c.258.476.5.922.743,1.371.087.158.177.312.258.473.1.211.054.291-.189.3-.189.006-.381-.009-.572.006a.329.329,0,0,1-.348-.226c-.267-.544-.551-1.077-.815-1.624a.343.343,0,0,0-.387-.244c-.177.018-.36,0-.572,0-.006.107-.012.2-.012.288,0,.5,0,1,0,1.5,0,.265-.03.288-.3.294-.132,0-.267,0-.4,0-.273-.006-.3-.027-.3-.288,0-.19,0-.378,0-.568v-4.08c0-.074,0-.152,0-.226a.152.152,0,0,1,.159-.164c.048,0,.1,0,.144,0,.686,0,1.37-.006,2.056,0a1.637,1.637,0,0,1,1.591,1.19,1.585,1.585,0,0,1-.734,1.808C6.877,148.1,6.778,148.154,6.649,148.229Zm-1.864-2.263v1.481c.462,0,.908.024,1.349-.006a.734.734,0,0,0,.626-.758.723.723,0,0,0-.65-.708C5.678,145.948,5.243,145.966,4.785,145.966Z" transform="translate(-2.636 -101.897)" fill="#e69e3d"/>
    <path id="Path_17" data-name="Path 17" d="M203.872,37.328a2.748,2.748,0,0,0,2.949-1.5c-.177.042-.3.083-.429.1A1.542,1.542,0,0,1,204.8,34.85a1.74,1.74,0,0,1,1.9-2.192,2.046,2.046,0,0,1,1.651,2.739,3.132,3.132,0,0,1-2.5,2.162,3.725,3.725,0,0,1-1.726-.054c-.093-.024-.186-.062-.276-.092C203.866,37.384,203.869,37.354,203.872,37.328Z" transform="translate(-142.773 -22.924)" fill="#e69e3d"/>
    <path id="Path_18" data-name="Path 18" d="M24.355,145.96v1.225c.1.006.195.015.288.015h1.4c.333,0,.348.018.351.357,0,.1,0,.19,0,.283-.006.25-.033.28-.279.283-.485,0-.971,0-1.456,0-.093,0-.186.009-.294.012v1.288c.1.006.195.018.3.018.59,0,1.181,0,1.771,0,.312,0,.327.018.327.318,0,.187-.006.372-.009.58-.126.012-.216.03-.309.033q-1.385,0-2.769,0c-.3,0-.327-.024-.327-.324q0-2.351,0-4.7c0-.285.018-.3.315-.3.932,0,1.867,0,2.8,0,.291,0,.3.012.3.306,0,.131,0,.265,0,.4a.179.179,0,0,1-.207.208H24.669C24.57,145.96,24.475,145.96,24.355,145.96Z" transform="translate(-16.353 -101.9)" fill="#e69e3d"/>
    <path id="Path_19" data-name="Path 19" d="M133.774,150.175c-.318.089-.5-.1-.605-.419-.048-.143-.126-.274-.183-.413a.209.209,0,0,0-.216-.143q-1,0-2,0a.213.213,0,0,0-.213.152c-.087.2-.186.393-.267.595a.332.332,0,0,1-.351.232c-.153-.006-.306,0-.456,0-.267-.006-.309-.068-.21-.306.012-.027.021-.054.033-.077l2.212-4.752c.012-.027.027-.051.036-.077.045-.107.093-.208.24-.2s.168.11.21.2q1.128,2.445,2.254,4.889c.117.253.069.315-.21.324C133.975,150.178,133.9,150.175,133.774,150.175Zm-1.247-1.85c-.261-.568-.5-1.088-.743-1.621a8.087,8.087,0,0,0-.7,1.621Z" transform="translate(-90.506 -101.699)" fill="#e69e3d"/>
    <path id="Path_20" data-name="Path 20" d="M247.522,149.227c-.078-.006-.144-.018-.21-.018-.617,0-1.238,0-1.855,0a.286.286,0,0,0-.324.205c-.069.184-.165.36-.243.544a.333.333,0,0,1-.351.232c-.18-.006-.363.006-.542-.006s-.21-.086-.15-.25a1.457,1.457,0,0,1,.072-.155q1.1-2.364,2.2-4.729c0-.009.009-.018.012-.027.06-.113.084-.262.264-.253.162.006.186.143.234.25q1.106,2.391,2.209,4.785c.15.324.114.378-.243.378-.743-.006-.587.08-.9-.571C247.642,149.483,247.582,149.355,247.522,149.227Zm-.4-.9c-.255-.556-.494-1.083-.761-1.659-.258.586-.509,1.106-.734,1.659Z" transform="translate(-170.759 -101.706)" fill="#e69e3d"/>
    <path id="Path_21" data-name="Path 21" d="M69.872,150.167a2.783,2.783,0,0,1-.315,0c-.141-.018-.18-.083-.141-.214a1.426,1.426,0,0,1,.069-.155q1.11-2.391,2.224-4.779a1.426,1.426,0,0,1,.075-.152.2.2,0,0,1,.36.012,1.423,1.423,0,0,1,.075.152q1.092,2.369,2.185,4.734c.165.36.138.41-.252.407-.716,0-.566.068-.86-.541-.249-.515-.09-.425-.683-.434-.485-.006-.971.018-1.456-.009a.429.429,0,0,0-.5.333c-.039.125-.12.238-.159.363a.381.381,0,0,1-.456.288,1.631,1.631,0,0,0-.171,0C69.872,150.17,69.872,150.167,69.872,150.167Zm2.11-3.435-.066-.009c-.234.52-.468,1.041-.713,1.591h1.5C72.455,147.767,72.219,147.25,71.982,146.732Z" transform="translate(-48.61 -101.694)" fill="#e69e3d"/>
    <path id="Path_22" data-name="Path 22" d="M173.722,145.953v4c0,.074,0,.152,0,.226a.166.166,0,0,1-.177.181q-.328.009-.656,0a.168.168,0,0,1-.174-.184c0-.074,0-.152,0-.226v-4h-.779c-.578,0-.545.048-.542-.532,0-.381,0-.384.375-.384h2.91c.048,0,.1,0,.144,0,.189.012.216.033.225.214q.009.241,0,.482c-.009.175-.045.211-.225.217-.246.006-.494,0-.74,0Z" transform="translate(-120.031 -101.893)" fill="#e69e3d"/>
    <path id="Path_23" data-name="Path 23" d="M55.408,145.068c.087-.006.18-.018.273-.018h3c.048,0,.1,0,.144,0a.159.159,0,0,1,.18.173v.538c0,.143-.072.2-.213.2-.285,0-.572,0-.857,0-.075,0-.147.012-.252.018v3.976c0,.074,0,.152,0,.226a.159.159,0,0,1-.165.187q-.328.009-.656,0a.164.164,0,0,1-.174-.181c0-.074,0-.152,0-.226v-4h-.9c-.423,0-.423,0-.423-.425q0-.17.009-.339A.63.63,0,0,1,55.408,145.068Z" transform="translate(-38.776 -101.903)" fill="#e69e3d"/>
  </g>
</svg>
