<svg xmlns="http://www.w3.org/2000/svg" width="22.674" height="18.451" viewBox="0 0 22.674 18.451">
  <path id="Icon_ionic-logo-twitter" data-name="Icon ionic-logo-twitter" d="M24.088,6.686a9.4,9.4,0,0,1-2.672.735,4.668,4.668,0,0,0,2.047-2.575,9.244,9.244,0,0,1-2.955,1.129A4.651,4.651,0,0,0,12.46,9.156a4.554,4.554,0,0,0,.12,1.062A13.183,13.183,0,0,1,2.989,5.35a4.661,4.661,0,0,0,1.446,6.218,4.544,4.544,0,0,1-2.114-.581v.058a4.656,4.656,0,0,0,3.733,4.565,4.683,4.683,0,0,1-1.225.163,4.389,4.389,0,0,1-.874-.086A4.659,4.659,0,0,0,8.3,18.92a9.327,9.327,0,0,1-5.78,1.994,9.429,9.429,0,0,1-1.11-.067,13,13,0,0,0,7.121,2.1A13.157,13.157,0,0,0,21.781,9.7c0-.2,0-.4-.014-.6A9.47,9.47,0,0,0,24.088,6.686Z" transform="translate(-1.413 -4.5)" fill="#fff"/>
</svg>
