<svg xmlns="http://www.w3.org/2000/svg" width="91.675" height="52.7" viewBox="0 0 91.675 52.7">
  <g id="Group_338" data-name="Group 338" transform="translate(19315.002 -6545.145)">
    <path id="Path_1" data-name="Path 1" d="M201.85,39.418H177.112a1.607,1.607,0,0,1,.169-.168,3.572,3.572,0,0,0,.83-.823,2.464,2.464,0,0,0,.433-1.146c.13,0,.26-.006.39-.006q6.189,0,12.374,0a8.017,8.017,0,0,0,4.946-1.608,7.922,7.922,0,0,0,3.25-5.721,8.13,8.13,0,0,0,.046-.891q0-9.357,0-18.711a8.127,8.127,0,0,0-6.491-8.014,9.116,9.116,0,0,0-1.943-.171H164.745A3.732,3.732,0,0,0,163.32.036c.176-.01.264-.016.355-.016H201.85Z" transform="translate(-19425.178 6545.126)" fill="#fff"/>
    <path id="Path_2" data-name="Path 2" d="M155.649,150.758q-1.659-1.811-3.315-3.623a1.478,1.478,0,0,0-.143-.119c-.006.139-.013.239-.013.336v2.954c0,.349-.02.365-.364.368-.166,0-.332,0-.495,0a.186.186,0,0,1-.208-.21V145.2a.471.471,0,0,1,0-.152c.026-.081.055-.21.107-.223a.554.554,0,0,1,.312.045c.068.029.117.113.172.171l2.954,3.116c.068.071.143.139.251.245.007-.152.016-.249.016-.346v-2.709c0-.081,0-.165,0-.245.007-.129.065-.213.208-.21h.683c.143,0,.205.078.2.213v.184q0,2.538,0,5.079a2.655,2.655,0,0,1-.059.387C155.857,150.758,155.753,150.758,155.649,150.758Z" transform="translate(-19416.941 6447.083)" fill="#fff"/>
    <path id="Path_3" data-name="Path 3" d="M199.769,151.17l-.29-.1a1.477,1.477,0,0,1-.758-2.357,5.97,5.97,0,0,1,.732-.688c-.026-.036-.075-.1-.124-.158a5.45,5.45,0,0,1-.342-.436,1.257,1.257,0,0,1,.586-1.853,1.774,1.774,0,0,1,1.559.048,1.209,1.209,0,0,1,.514,1.731,3.652,3.652,0,0,1-.5.581,3.193,3.193,0,0,1-.29.242c.3.3.579.584.882.888a1.787,1.787,0,0,0,.251-.614c.029-.1.046-.2.072-.3a.178.178,0,0,1,.231-.145.425.425,0,0,1,.062.013c.625.174.651.132.449.749-.1.32-.244.626-.377.959.2.194.413.387.621.588s.211.265.01.478c-.12.126-.247.245-.374.368H202.5c-.221-.207-.442-.417-.68-.636a2.384,2.384,0,0,1-1.2.584.447.447,0,0,0-.1.052C200.264,151.17,200.016,151.17,199.769,151.17Zm.273-2.57a1.127,1.127,0,0,0-.612.6.755.755,0,0,0,.589,1.088,1.3,1.3,0,0,0,1.2-.446C200.82,149.417,200.433,149.013,200.042,148.6Zm.218-.994a1.262,1.262,0,0,0,.618-.542.568.568,0,0,0-.176-.739.683.683,0,0,0-.856.026.558.558,0,0,0-.026.756C199.948,147.276,200.1,147.428,200.26,147.605Z" transform="translate(-19448.84 6446.671)" fill="#fff"/>
    <path id="Path_4" data-name="Path 4" d="M92.656,150.91c-.094-.036-.185-.074-.283-.1a2.245,2.245,0,0,1-1.627-2.128c-.013-1.107,0-2.215,0-3.322,0-.287.026-.31.322-.313.156,0,.309,0,.465,0,.306,0,.319.016.322.307,0,.316,0,.636,0,.953v2.092a2.3,2.3,0,0,0,.026.4,1.2,1.2,0,0,0,2.388-.168c.013-1.046,0-2.092,0-3.138,0-.446,0-.446.436-.446.156,0,.309,0,.465,0a.186.186,0,0,1,.215.2v3.232a2.251,2.251,0,0,1-1.851,2.383.326.326,0,0,0-.075.048C93.193,150.91,92.926,150.91,92.656,150.91Z" transform="translate(-19376.213 6446.931)" fill="#fff"/>
    <path id="Path_5" data-name="Path 5" d="M41.307,150.736c-.15-.039-.3-.078-.446-.119a2.538,2.538,0,0,1-.927-.478.232.232,0,0,1-.068-.346c.085-.129.153-.268.234-.4.117-.181.192-.2.384-.094a5.278,5.278,0,0,0,.683.355,1.849,1.849,0,0,0,.664.1.6.6,0,0,0,.566-.41.621.621,0,0,0-.166-.678,2.352,2.352,0,0,0-.843-.5,3.461,3.461,0,0,1-1.035-.6,1.5,1.5,0,0,1-.53-1.075,1.564,1.564,0,0,1,1.318-1.647,2.784,2.784,0,0,1,2.1.417c.228.142.244.232.107.452-.072.113-.146.226-.224.333-.14.187-.2.2-.413.094-.241-.119-.478-.239-.729-.336a.89.89,0,0,0-.693.01.554.554,0,0,0-.215.911,1.534,1.534,0,0,0,.387.3,5.682,5.682,0,0,0,.589.271,3.728,3.728,0,0,1,1.012.588,1.558,1.558,0,0,1-.322,2.619,5.255,5.255,0,0,1-.628.242C41.844,150.736,41.574,150.736,41.307,150.736Z" transform="translate(-19341.859 6447.105)" fill="#fff"/>
    <path id="Path_6" data-name="Path 6" d="M56.276,37.308a3.859,3.859,0,0,0,1.389,2.073.261.261,0,0,1-.016.048.03.03,0,0,1-.023.016q-28.717,0-57.434.006a1.068,1.068,0,0,1-.146-.016C-.025,39.174-.029.354.046.07H43.785c-.329.3-.664.584-.96.9a2.321,2.321,0,0,0-.56,1.22H25.649q-7.472,0-14.947,0a8.087,8.087,0,0,0-3.468.681A7.985,7.985,0,0,0,2.4,9.324a6.611,6.611,0,0,0-.059.949q0,9.478,0,18.96a8.119,8.119,0,0,0,6.745,7.953,9.583,9.583,0,0,0,1.637.123H56.276Z" transform="translate(-19314.994 6545.092)" fill="#fff"/>
    <path id="Path_7" data-name="Path 7" d="M28.053,46.486c0-.1-.01-.165-.013-.265.124-.01.231-.019.342-.026a1.979,1.979,0,0,0,2.008-1.744,8.422,8.422,0,0,0,.127-1.715V23.319a7.034,7.034,0,0,0-.13-1.653,3.284,3.284,0,0,0-.251-.723,1.838,1.838,0,0,0-1.516-.978c-.172-.023-.348-.036-.537-.055-.01-.074-.02-.142-.029-.21a.389.389,0,0,1,.094-.036,1.265,1.265,0,0,1,.156-.006c3.586,0,7.174-.013,10.76.019a34.768,34.768,0,0,1,6.042.536,13.664,13.664,0,0,1,3.878,1.24,5.914,5.914,0,0,1,1.78,1.366,4.618,4.618,0,0,1,1.061,3.555,4.767,4.767,0,0,1-2.008,3.5,9.936,9.936,0,0,1-3.192,1.53,21.147,21.147,0,0,1-3.856.756c-.472.052-.947.087-1.419.132a.346.346,0,0,0-.228.116.963.963,0,0,0,.179.058c.895.084,1.793.142,2.684.249a17.556,17.556,0,0,1,5.144,1.3,9.913,9.913,0,0,1,1.536.859,4.936,4.936,0,0,1,2.271,3.778,5.935,5.935,0,0,1-3.107,6.006,11.888,11.888,0,0,1-3.3,1.227,23.392,23.392,0,0,1-4.389.555c-.992.039-1.985.052-2.974.052q-5.364.01-10.727,0C28.31,46.486,28.19,46.486,28.053,46.486Zm7.734-.278h.358c.817,0,1.633,0,2.45,0a14.636,14.636,0,0,0,2.255-.142,9.338,9.338,0,0,0,3.114-.978,5.951,5.951,0,0,0,3.062-3.875,8.283,8.283,0,0,0,.172-3.174,5.443,5.443,0,0,0-3.283-4.52,9.851,9.851,0,0,0-3.752-.862c-1.393-.058-2.788-.042-4.184-.058-.059,0-.12.013-.192.019C35.787,37.138,35.787,41.649,35.787,46.208Zm0-26.273V32.3h.322c.7,0,1.406,0,2.108,0a16.418,16.418,0,0,0,2.287-.139,9.168,9.168,0,0,0,2.9-.862,5.366,5.366,0,0,0,2.837-3.335A7.543,7.543,0,0,0,46.43,24.4a4.55,4.55,0,0,0-2.5-3.361c-.192-.1-.39-.191-.589-.274a11.358,11.358,0,0,0-3.221-.733,41.4,41.4,0,0,0-4.152-.107C35.917,19.922,35.865,19.929,35.79,19.935Z" transform="translate(-19333.916 6531.83)" fill="#fff"/>
    <path id="Path_8" data-name="Path 8" d="M139.888,16.054q0-6.693,0-13.384a3.038,3.038,0,0,0-.075-.73,1.218,1.218,0,0,0-1.435-.923.893.893,0,0,0-.7.542,8.575,8.575,0,0,0-.267.817c-.049.155-.078.32-.137.471-.085.21-.224.258-.452.187a.309.309,0,0,1-.244-.4,3.407,3.407,0,0,1,.251-.688,2.89,2.89,0,0,1,.872-.985A4.808,4.808,0,0,1,140.34.029,5.449,5.449,0,0,1,142.182.2a3.244,3.244,0,0,1,2.17,1.828,5.6,5.6,0,0,1,.482,1.931c.036.429.049.859.049,1.292q0,12.815,0,25.63a2.226,2.226,0,0,0,.15.933,1.173,1.173,0,0,0,1.236.733.908.908,0,0,0,.81-.578,6.914,6.914,0,0,0,.234-.856c.036-.139.042-.284.078-.423a1.149,1.149,0,0,1,.14-.339.281.281,0,0,1,.514.045.862.862,0,0,1,.049.417,2.342,2.342,0,0,1-.7,1.375,4.391,4.391,0,0,1-2.252,1.224A4.607,4.607,0,0,1,142.2,33.2a3.739,3.739,0,0,1-2.258-2.954,6.553,6.553,0,0,1-.085-1.1q-.01-6.538,0-13.077A.065.065,0,0,1,139.888,16.054Z" transform="translate(-19407.127 6545.13)" fill="#fff"/>
    <path id="Path_9" data-name="Path 9" d="M171.673,33.861q0-6.771-.007-13.538a2.844,2.844,0,0,0-.117-.846,1.221,1.221,0,0,0-1.519-.778.847.847,0,0,0-.563.491,7.941,7.941,0,0,0-.264.785c-.052.165-.078.339-.14.5a.371.371,0,0,1-.706-.22,3.506,3.506,0,0,1,.329-.788,3.39,3.39,0,0,1,1.506-1.288,5.42,5.42,0,0,1,3.927-.284,3.163,3.163,0,0,1,2.1,1.95,6.243,6.243,0,0,1,.423,1.976c.02.307.023.613.023.923V48.659a2.245,2.245,0,0,0,.176.991,1.174,1.174,0,0,0,1.373.681.927.927,0,0,0,.7-.636c.1-.291.146-.6.218-.894a5.17,5.17,0,0,1,.137-.536.323.323,0,0,1,.351-.242.308.308,0,0,1,.267.329,2.9,2.9,0,0,1-.117.749,2.428,2.428,0,0,1-.735,1.049,4.65,4.65,0,0,1-2.492,1.143,4.5,4.5,0,0,1-1.936-.087,3.746,3.746,0,0,1-2.847-3.084,6.063,6.063,0,0,1-.107-1.162q0-4.461.007-8.924V33.851C171.657,33.861,171.663,33.861,171.673,33.861Z" transform="translate(-19428.564 6533.184)" fill="#fff"/>
    <path id="Path_10" data-name="Path 10" d="M223.5,51.527c-.277-.174-.547-.362-.833-.517a6.529,6.529,0,0,0-2.326-.707,7.067,7.067,0,0,0-3.006.223,3.735,3.735,0,0,0-1.477.817,2.063,2.063,0,0,0-.7,1.821,1.921,1.921,0,0,0,.39.923,4.033,4.033,0,0,0,.921.865,11.124,11.124,0,0,0,1.887,1.056c1.11.5,2.229.982,3.338,1.482a14.886,14.886,0,0,1,2.32,1.233,9.71,9.71,0,0,1,1.233.975,3.5,3.5,0,0,1,.54,4.575,5.176,5.176,0,0,1-1.653,1.637,9.551,9.551,0,0,1-3.3,1.292,15.425,15.425,0,0,1-4.871.236,9.507,9.507,0,0,1-3.651-1.1,5.448,5.448,0,0,1-1.3-.985,3.093,3.093,0,0,1-.927-1.934,2.211,2.211,0,0,1,1.051-2.128,2.393,2.393,0,0,1,2.5-.142,2.318,2.318,0,0,1,1.318,2.286A2.483,2.483,0,0,1,213,65.6l-.332.068c-.02.026-.039.048-.059.074a1.507,1.507,0,0,1,.211.123,4.846,4.846,0,0,0,1.653.888,9.423,9.423,0,0,0,4.744.258,4.1,4.1,0,0,0,1.715-.749,2.412,2.412,0,0,0,1-1.766,2.025,2.025,0,0,0-.387-1.392,3.384,3.384,0,0,0-1.012-.943c-.618-.371-1.243-.739-1.89-1.049-1.171-.559-2.379-1.053-3.547-1.614a19.663,19.663,0,0,1-2.014-1.146A6.459,6.459,0,0,1,212,57.442a3.6,3.6,0,0,1-.13-4.992,5.719,5.719,0,0,1,1.737-1.317,10.484,10.484,0,0,1,3.182-.978,15.07,15.07,0,0,1,2.9-.184,9.435,9.435,0,0,1,4.031.972,4.828,4.828,0,0,1,1.64,1.292,2.41,2.41,0,0,1,.534,1.84,2.027,2.027,0,0,1-1.851,1.811,2.335,2.335,0,0,1-2.408-1.369,2.112,2.112,0,0,1,1.415-2.825c.137-.036.277-.058.416-.087C223.48,51.575,223.49,51.55,223.5,51.527Z" transform="translate(-19456.723 6511.311)" fill="#fff"/>
    <path id="Path_11" data-name="Path 11" d="M113.039,59.848v5.047a3.012,3.012,0,0,0,.143,1.091,1.878,1.878,0,0,0,.325.584.907.907,0,0,0,1.461-.1,3.189,3.189,0,0,0,.319-.73c.1-.3.159-.613.254-.92a1.781,1.781,0,0,1,.189-.417.34.34,0,0,1,.4-.158.321.321,0,0,1,.254.313,2.68,2.68,0,0,1-.081.665,2.749,2.749,0,0,1-.83,1.279,4.513,4.513,0,0,1-3.765,1.2,4.884,4.884,0,0,1-1.054-.236,4.037,4.037,0,0,1-2.8-3.274,8.235,8.235,0,0,1-.117-1.5c0-2.964.029-5.928.036-8.889a6.419,6.419,0,0,0-.124-1.221,2.081,2.081,0,0,0-.316-.759.811.811,0,0,0-1.438.077,4.271,4.271,0,0,0-.277.746c-.072.213-.117.436-.192.649a1.237,1.237,0,0,1-.172.323.347.347,0,0,1-.39.123.326.326,0,0,1-.247-.316,1.324,1.324,0,0,1,.15-.714,3.113,3.113,0,0,1,.68-.907,4.639,4.639,0,0,1,3.979-1.279,6.2,6.2,0,0,1,.966.207,3.414,3.414,0,0,1,2.287,2.167,6.617,6.617,0,0,1,.355,2.36C113.042,56.79,113.039,58.321,113.039,59.848Z" transform="translate(-19385.574 6510.961)" fill="#fff"/>
    <path id="Path_12" data-name="Path 12" d="M111.5,26.649a2.972,2.972,0,0,1,3.01-3.019,3.014,3.014,0,0,1,3.068,3.009,3.061,3.061,0,0,1-3.075,3.022A3.016,3.016,0,0,1,111.5,26.649Z" transform="translate(-19390.221 6529.141)" fill="#fff"/>
    <path id="Path_13" data-name="Path 13" d="M230.805,147.889c.1.055.189.1.277.155a1.416,1.416,0,0,1,.12,2.418,2,2,0,0,1-1.158.378c-.641.013-1.282.006-1.92,0-.264,0-.3-.042-.3-.31q0-2.581,0-5.166c0-.284.026-.307.325-.31.6,0,1.2,0,1.8,0a1.814,1.814,0,0,1,1.074.333,1.376,1.376,0,0,1,.153,2.2C231.066,147.7,230.939,147.782,230.805,147.889Zm-1.877,1.931a.858.858,0,0,0,.114.032c.28,0,.56.01.836,0a.749.749,0,0,0,.781-.681.735.735,0,0,0-.67-.756,9.6,9.6,0,0,0-1.058-.006C228.928,148.886,228.928,149.342,228.928,149.82Zm0-2.351c.342,0,.651.016.957,0a.68.68,0,0,0,.618-.659.644.644,0,0,0-.472-.733,4.838,4.838,0,0,0-1.1-.026Z" transform="translate(-19468.695 6446.921)" fill="#fff"/>
    <path id="Path_14" data-name="Path 14" d="M115.127,148.487c.059.113.111.223.166.329.28.513.56,1.03.839,1.543a1.761,1.761,0,0,1,.1.19c.059.152.01.249-.153.255-.28.013-.56.006-.836,0-.14,0-.179-.123-.228-.223q-.444-.877-.892-1.76c-.046-.09-.094-.181-.14-.265h-.9c-.007.1-.02.19-.02.281,0,.555,0,1.107,0,1.663,0,.271-.036.3-.3.307-.176,0-.351.007-.527,0-.215-.01-.241-.042-.254-.262,0-.052,0-.1,0-.155v-4.956c0-.12.013-.242.02-.391.12-.01.221-.023.319-.023.735,0,1.467-.006,2.2,0a1.76,1.76,0,0,1,1.8,1.547,1.648,1.648,0,0,1-.729,1.627A4.814,4.814,0,0,1,115.127,148.487Zm-2.047-.836c.459,0,.888.006,1.321,0a.817.817,0,0,0,.836-.81.8.8,0,0,0-.826-.814c-.381-.01-.765,0-1.145,0-.059,0-.117.016-.185.023Z" transform="translate(-19390.541 6446.945)" fill="#fff"/>
    <path id="Path_15" data-name="Path 15" d="M267.7,148.556h-.758a.776.776,0,0,0-.14.026c-.006.1-.013.2-.013.3v1.6c0,.3-.026.326-.339.333-.166,0-.332.007-.495,0-.2-.01-.231-.045-.244-.239,0-.061,0-.123,0-.184V145.44c0-.071,0-.142,0-.216a.174.174,0,0,1,.192-.191c.033,0,.062,0,.094,0,.774,0,1.552-.013,2.326,0a1.762,1.762,0,0,1,1.741,1.853,1.722,1.722,0,0,1-.9,1.424c-.095.058-.192.113-.306.178.081.158.156.3.234.446.264.488.53.975.794,1.463.189.352.146.417-.267.42-.166,0-.332-.01-.495,0a.352.352,0,0,1-.384-.232c-.3-.61-.608-1.211-.914-1.815C267.793,148.707,267.757,148.646,267.7,148.556Zm-.888-.936a.61.61,0,0,0,.117.032c.4,0,.8.01,1.207,0a.825.825,0,0,0,.836-.814.807.807,0,0,0-.83-.81c-.371-.01-.742,0-1.113,0a1.365,1.365,0,0,0-.215.029C266.817,146.583,266.817,147.093,266.817,147.619Z" transform="translate(-19494.26 6446.942)" fill="#fff"/>
    <path id="Path_16" data-name="Path 16" d="M6.9,148.5c.28.517.543,1,.807,1.488.094.171.192.339.28.513.114.229.059.316-.2.326-.2.007-.413-.01-.621.007a.357.357,0,0,1-.377-.245c-.29-.591-.6-1.169-.885-1.763a.373.373,0,0,0-.42-.265c-.192.019-.39,0-.621,0-.007.116-.013.216-.013.313,0,.542,0,1.088,0,1.631,0,.287-.033.313-.322.32-.143,0-.29,0-.433,0-.3-.006-.322-.029-.325-.313,0-.207,0-.41,0-.617v-4.43c0-.081,0-.165,0-.245a.165.165,0,0,1,.172-.178c.052,0,.1,0,.156,0,.745,0,1.487-.006,2.232,0a1.778,1.778,0,0,1,1.728,1.292,1.721,1.721,0,0,1-.8,1.963C7.144,148.363,7.037,148.421,6.9,148.5Zm-2.024-2.457v1.608c.5,0,.986.026,1.464-.006a.8.8,0,0,0,.68-.823.785.785,0,0,0-.706-.768C5.843,146.026,5.371,146.045,4.873,146.045Z" transform="translate(-19317.535 6446.931)" fill="#fff"/>
    <path id="Path_17" data-name="Path 17" d="M203.873,37.729a2.984,2.984,0,0,0,3.2-1.631c-.192.045-.325.09-.465.11a1.674,1.674,0,0,1-1.724-1.169,1.89,1.89,0,0,1,2.066-2.38,2.222,2.222,0,0,1,1.793,2.974,3.4,3.4,0,0,1-2.71,2.347,4.044,4.044,0,0,1-1.874-.058c-.1-.026-.2-.068-.3-.1C203.867,37.791,203.87,37.758,203.873,37.729Z" transform="translate(-19452.531 6523.038)" fill="#fff"/>
    <path id="Path_18" data-name="Path 18" d="M24.441,146.038v1.33c.111.006.211.016.312.016h1.519c.361,0,.377.019.381.387,0,.1,0,.207,0,.307-.007.271-.036.3-.3.307-.527,0-1.054,0-1.581,0-.1,0-.2.01-.319.013v1.4c.1.007.211.019.322.019.641,0,1.282,0,1.923,0,.338,0,.355.019.355.345,0,.2-.007.4-.01.63-.137.013-.234.032-.335.036q-1.5,0-3.006,0c-.325,0-.355-.026-.355-.352q0-2.552,0-5.108c0-.31.02-.326.342-.326,1.012,0,2.027,0,3.039,0,.316,0,.325.013.329.333,0,.142,0,.287,0,.429a.194.194,0,0,1-.224.226H24.783C24.676,146.038,24.572,146.038,24.441,146.038Z" transform="translate(-19330.75 6446.927)" fill="#fff"/>
    <path id="Path_19" data-name="Path 19" d="M134.164,150.639c-.345.1-.543-.1-.657-.455-.052-.155-.137-.3-.2-.449a.227.227,0,0,0-.234-.155q-1.083,0-2.17,0a.232.232,0,0,0-.231.165c-.094.216-.2.426-.29.646a.36.36,0,0,1-.381.252c-.166-.006-.332,0-.495,0-.29-.006-.335-.074-.228-.333.013-.029.023-.058.036-.084q1.2-2.581,2.4-5.16c.013-.029.029-.055.039-.084.049-.116.1-.226.26-.22s.182.119.228.22q1.225,2.654,2.447,5.308c.127.274.075.342-.228.352C134.382,150.642,134.3,150.639,134.164,150.639Zm-1.354-2.008c-.283-.617-.54-1.182-.807-1.76a8.781,8.781,0,0,0-.765,1.76Z" transform="translate(-19402.178 6447.122)" fill="#fff"/>
    <path id="Path_20" data-name="Path 20" d="M247.84,149.609c-.085-.006-.156-.019-.228-.019-.67,0-1.344,0-2.014,0a.31.31,0,0,0-.351.223c-.075.2-.179.391-.264.591a.362.362,0,0,1-.381.252c-.2-.006-.394.006-.589-.006s-.228-.094-.163-.271a1.584,1.584,0,0,1,.078-.168q1.2-2.567,2.388-5.134c0-.01.01-.019.013-.029.065-.123.091-.284.286-.274.176.006.2.155.254.271q1.2,2.6,2.4,5.2c.163.352.124.41-.263.41-.807-.007-.638.087-.973-.62C247.97,149.887,247.9,149.748,247.84,149.609Zm-.429-.978c-.277-.6-.537-1.175-.826-1.8-.28.636-.553,1.2-.8,1.8Z" transform="translate(-19479.488 6447.115)" fill="#fff"/>
    <path id="Path_21" data-name="Path 21" d="M69.913,150.631a3.01,3.01,0,0,1-.342,0c-.153-.019-.2-.09-.153-.232a1.548,1.548,0,0,1,.075-.168q1.205-2.6,2.414-5.189a1.542,1.542,0,0,1,.081-.165.213.213,0,0,1,.39.013,1.545,1.545,0,0,1,.081.165q1.186,2.572,2.372,5.14c.179.391.15.446-.273.442-.778,0-.615.074-.934-.588-.27-.559-.1-.462-.742-.471-.527-.006-1.054.019-1.581-.01a.466.466,0,0,0-.543.362c-.042.136-.13.258-.172.394a.413.413,0,0,1-.495.313,1.769,1.769,0,0,0-.185,0C69.913,150.634,69.913,150.631,69.913,150.631ZM72.2,146.9l-.072-.01c-.254.565-.508,1.13-.774,1.727h1.63C72.717,148.026,72.46,147.464,72.2,146.9Z" transform="translate(-19361.822 6447.126)" fill="#fff"/>
    <path id="Path_22" data-name="Path 22" d="M173.922,146.032v4.346c0,.081,0,.165,0,.245a.181.181,0,0,1-.192.2q-.356.01-.713,0a.182.182,0,0,1-.189-.2c0-.081,0-.165,0-.245v-4.343h-.846c-.628,0-.592.052-.589-.578,0-.413,0-.417.407-.417h3.159c.052,0,.1,0,.156,0,.2.013.234.036.244.232q.01.262,0,.523c-.01.19-.049.229-.244.236-.267.006-.537,0-.8,0Z" transform="translate(-19430.623 6446.934)" fill="#fff"/>
    <path id="Path_23" data-name="Path 23" d="M55.412,145.069c.094-.006.2-.019.3-.019h3.257c.052,0,.1,0,.156,0a.173.173,0,0,1,.2.187v.584c0,.155-.078.22-.231.22-.309,0-.621,0-.931,0-.081,0-.159.013-.273.019v4.317c0,.081,0,.165,0,.245a.173.173,0,0,1-.179.2q-.356.01-.713,0a.178.178,0,0,1-.189-.2c0-.081,0-.165,0-.245v-4.346h-.979c-.459,0-.459,0-.459-.462q0-.184.01-.368A.685.685,0,0,1,55.412,145.069Z" transform="translate(-19352.35 6446.925)" fill="#fff"/>
  </g>
</svg>
