<svg xmlns="http://www.w3.org/2000/svg" width="118.968" height="26.567" viewBox="0 0 118.968 26.567">
  <g id="opentable-official" transform="translate(0 -49.5)">
    <path id="Path_123" data-name="Path 123" d="M23.328,49.5A13.283,13.283,0,1,0,36.612,62.783,13.284,13.284,0,0,0,23.328,49.5Zm0,16.6a3.318,3.318,0,1,1,3.318-3.318A3.345,3.345,0,0,1,23.328,66.1ZM0,62.783a3.3,3.3,0,0,1,3.318-3.318A3.318,3.318,0,1,1,3.331,66.1,3.306,3.306,0,0,1,0,62.783" fill="#fff"/>
    <path id="Path_124" data-name="Path 124" d="M352.32,111.434a3.368,3.368,0,0,1,3.476,3.476v.463c0,.238-.238.3-.383.3h-4.864a1.806,1.806,0,0,0,1.85,1.771,2.671,2.671,0,0,0,1.626-.542c.159-.159.383-.159.463,0l.621.846a.284.284,0,0,1,0,.463,4.549,4.549,0,0,1-2.855,1,3.84,3.84,0,0,1-3.859-3.939A3.981,3.981,0,0,1,352.32,111.434Zm1.388,3.014a1.346,1.346,0,0,0-1.467-1.309,1.5,1.5,0,0,0-1.626,1.309h3.093Zm18.385-5.948h-7.719a.327.327,0,0,0-.3.3v1.309a.327.327,0,0,0,.3.3h2.776v8.419a.327.327,0,0,0,.3.3H369a.327.327,0,0,0,.3-.3V110.5h2.776a.327.327,0,0,0,.3-.3v-1.309C372.49,108.659,372.331,108.5,372.093,108.5Zm11.671,2.934a5.248,5.248,0,0,0-1.85.3v-2.855a.411.411,0,0,0-.383-.383h-1.309a.411.411,0,0,0-.383.383v9.966a.361.361,0,0,0,.383.383h.7a.361.361,0,0,0,.383-.383v-.542a3.251,3.251,0,0,0,2.551,1.163,3.687,3.687,0,0,0,3.555-3.939C387.465,113.139,386,111.434,383.764,111.434Zm-.159,6.027a1.731,1.731,0,0,1-1.705-1.084v-2.71a2.789,2.789,0,0,1,1.546-.463,1.883,1.883,0,0,1,1.85,2.088A1.8,1.8,0,0,1,383.605,117.461Zm12.821-6.027a3.368,3.368,0,0,1,3.476,3.476v.463c0,.238-.238.3-.383.3h-4.864a1.806,1.806,0,0,0,1.85,1.771,2.671,2.671,0,0,0,1.626-.542c.159-.159.383-.159.463,0l.621.846a.284.284,0,0,1,0,.463,4.549,4.549,0,0,1-2.855,1,3.84,3.84,0,0,1-3.859-3.939,3.928,3.928,0,0,1,3.926-3.846Zm1.388,3.014a1.346,1.346,0,0,0-1.467-1.309,1.5,1.5,0,0,0-1.626,1.309Zm-54.138-3.014A3.287,3.287,0,0,0,341.2,112.6v-.621a.361.361,0,0,0-.383-.383h-.767a.361.361,0,0,0-.383.383v9.966a.411.411,0,0,0,.383.383h1.309a.411.411,0,0,0,.383-.383v-2.855a4.959,4.959,0,0,0,1.85.3,3.775,3.775,0,0,0,3.78-3.939A3.841,3.841,0,0,0,343.676,111.434Zm-.4,6.027a2.789,2.789,0,0,1-1.546-.463v-2.71a1.731,1.731,0,0,1,1.705-1.084,1.871,1.871,0,0,1,1.771,2.088A1.961,1.961,0,0,1,343.28,117.461Zm18.081-6.027a3.149,3.149,0,0,0-2.472,1.084v-.542a.361.361,0,0,0-.383-.383h-.846a.411.411,0,0,0-.383.383v6.873a.361.361,0,0,0,.383.383h1.309c.383,0,.463-.079.463-.383v-4.322a1.652,1.652,0,0,1,1.626-1.163c.925,0,1.309.621,1.309,1.626v3.939a.361.361,0,0,0,.383.383h1.309a.411.411,0,0,0,.383-.383V114.99C364.454,113.06,363.832,111.434,361.361,111.434Zm13.825,0a9.783,9.783,0,0,0-2.63.383.351.351,0,0,0-.238.463l.159.846c0,.238.159.383.463.3a8.393,8.393,0,0,1,2.168-.3c.767,0,1.084.463,1.084,1.388a5.157,5.157,0,0,0-1.467-.238c-1.93,0-3.013,1-3.013,2.392a2.457,2.457,0,0,0,2.551,2.63,3.632,3.632,0,0,0,2.392-.925v.383a.361.361,0,0,0,.383.383h.78a.361.361,0,0,0,.383-.383v-4.1c-.159-1.983-.7-3.225-3.013-3.225Zm.846,5.564a1.558,1.558,0,0,1-1.388.767,1.013,1.013,0,0,1-1.084-1.084c0-.7.463-1.084,1.309-1.084a2.6,2.6,0,0,1,1.084.238V117Zm-43.326-8.5a5.438,5.438,0,0,0-5.406,5.485,5.446,5.446,0,0,0,10.891,0A5.506,5.506,0,0,0,332.706,108.5Zm0,2.088a3.4,3.4,0,0,1,3.318,3.318,3.318,3.318,0,1,1-6.635,0A3.39,3.39,0,0,1,332.706,110.588Zm58.552,8.578a.361.361,0,0,0,.383-.383v-1.309a.361.361,0,0,0-.383-.383h-.079a.327.327,0,0,1-.3-.3V108.91a.411.411,0,0,0-.383-.383h-1.309a.411.411,0,0,0-.383.383v9.041a1.407,1.407,0,0,0,1.308,1.309Zm9.107-7.494H399.9v-.238h1.308v.238h-.542v1.309h-.3Zm1.084-.238h.383l.238.542.159.383.159-.383.238-.542h.383v1.546h-.3v-1.242l-.383,1h-.251l-.383-1v1.242h-.238v-1.546Z" transform="translate(-284.04 -51.202)" fill="#fff"/>
  </g>
</svg>
