<svg xmlns="http://www.w3.org/2000/svg" width="20.671" height="20.671" viewBox="0 0 20.671 20.671">
  <path id="Icon_simple-instagram" data-name="Icon simple-instagram" d="M10.336,0C7.528,0,7.177.013,6.075.062A7.621,7.621,0,0,0,3.566.543,5.061,5.061,0,0,0,1.735,1.735,5.043,5.043,0,0,0,.543,3.566,7.6,7.6,0,0,0,.062,6.075C.01,7.177,0,7.528,0,10.336S.013,13.494.062,14.6a7.626,7.626,0,0,0,.481,2.509,5.069,5.069,0,0,0,1.192,1.831,5.054,5.054,0,0,0,1.831,1.192,7.631,7.631,0,0,0,2.509.481c1.1.052,1.453.062,4.261.062s3.158-.013,4.261-.062a7.649,7.649,0,0,0,2.509-.481,5.282,5.282,0,0,0,3.023-3.023,7.626,7.626,0,0,0,.481-2.509c.052-1.1.062-1.453.062-4.261s-.013-3.158-.062-4.261a7.644,7.644,0,0,0-.481-2.509,5.073,5.073,0,0,0-1.192-1.831A5.036,5.036,0,0,0,17.106.543,7.6,7.6,0,0,0,14.6.062C13.494.01,13.144,0,10.336,0Zm0,1.86c2.759,0,3.088.014,4.177.061a5.7,5.7,0,0,1,1.918.357A3.4,3.4,0,0,1,18.393,4.24a5.707,5.707,0,0,1,.356,1.918c.049,1.09.06,1.418.06,4.177s-.013,3.088-.064,4.177a5.817,5.817,0,0,1-.363,1.918,3.282,3.282,0,0,1-.774,1.19,3.225,3.225,0,0,1-1.189.772,5.749,5.749,0,0,1-1.925.356c-1.1.049-1.42.06-4.185.06s-3.089-.013-4.185-.064A5.861,5.861,0,0,1,4.2,18.383a3.2,3.2,0,0,1-1.188-.774,3.138,3.138,0,0,1-.775-1.189,5.866,5.866,0,0,1-.362-1.925c-.039-1.085-.053-1.42-.053-4.172s.014-3.089.053-4.187a5.859,5.859,0,0,1,.362-1.924,3.064,3.064,0,0,1,.775-1.189A3.057,3.057,0,0,1,4.2,2.249a5.721,5.721,0,0,1,1.913-.363c1.1-.039,1.421-.052,4.185-.052l.039.026Zm0,3.168a5.307,5.307,0,1,0,5.307,5.307A5.307,5.307,0,0,0,10.336,5.028Zm0,8.753a3.445,3.445,0,1,1,3.445-3.445A3.444,3.444,0,0,1,10.336,13.781Zm6.758-8.962a1.24,1.24,0,1,1-1.24-1.239A1.241,1.241,0,0,1,17.094,4.819Z" fill="#fff"/>
</svg>
